G04*
G04 #@! TF.GenerationSoftware,Altium Limited,Altium Designer,20.2.4 (192)*
G04*
G04 Layer_Physical_Order=3*
G04 Layer_Color=16440176*
%FSLAX25Y25*%
%MOIN*%
G70*
G04*
G04 #@! TF.SameCoordinates,A5F6943D-DC98-46DD-BCD6-D067057649BF*
G04*
G04*
G04 #@! TF.FilePolarity,Positive*
G04*
G01*
G75*
%ADD39C,0.08200*%
%ADD40C,0.05500*%
%ADD41C,0.08000*%
%ADD44O,0.14961X0.07480*%
%ADD45C,0.02000*%
G36*
X294256Y40390D02*
X60075D01*
Y168272D01*
X294256D01*
X294256Y40390D01*
D02*
G37*
%LPC*%
G36*
X135236Y166225D02*
X133884Y166092D01*
X132583Y165697D01*
X131384Y165056D01*
X130334Y164194D01*
X129471Y163143D01*
X128831Y161945D01*
X128436Y160644D01*
X128303Y159291D01*
X128436Y157939D01*
X128831Y156638D01*
X129471Y155439D01*
X130334Y154389D01*
X131384Y153526D01*
X132583Y152886D01*
X133884Y152491D01*
X135236Y152358D01*
X136589Y152491D01*
X137890Y152886D01*
X139088Y153526D01*
X140139Y154389D01*
X141001Y155439D01*
X141642Y156638D01*
X142036Y157939D01*
X142170Y159291D01*
X142036Y160644D01*
X141642Y161945D01*
X141001Y163143D01*
X140139Y164194D01*
X139088Y165056D01*
X137890Y165697D01*
X136589Y166092D01*
X135236Y166225D01*
D02*
G37*
G36*
X85236D02*
X83884Y166092D01*
X82583Y165697D01*
X81384Y165056D01*
X80334Y164194D01*
X79471Y163143D01*
X78831Y161945D01*
X78436Y160644D01*
X78303Y159291D01*
X78436Y157939D01*
X78831Y156638D01*
X79471Y155439D01*
X80334Y154389D01*
X81384Y153526D01*
X82583Y152886D01*
X83884Y152491D01*
X85236Y152358D01*
X86589Y152491D01*
X87889Y152886D01*
X89088Y153526D01*
X90139Y154389D01*
X91001Y155439D01*
X91642Y156638D01*
X92036Y157939D01*
X92170Y159291D01*
X92036Y160644D01*
X91642Y161945D01*
X91001Y163143D01*
X90139Y164194D01*
X89088Y165056D01*
X87889Y165697D01*
X86589Y166092D01*
X85236Y166225D01*
D02*
G37*
G36*
X120236Y152569D02*
X119388Y152458D01*
X118597Y152130D01*
X117918Y151609D01*
X117397Y150930D01*
X117070Y150140D01*
X116958Y149291D01*
X117070Y148443D01*
X117397Y147652D01*
X117918Y146973D01*
X118597Y146452D01*
X119388Y146125D01*
X120236Y146013D01*
X121085Y146125D01*
X121875Y146452D01*
X122554Y146973D01*
X123075Y147652D01*
X123403Y148443D01*
X123514Y149291D01*
X123403Y150140D01*
X123075Y150930D01*
X122554Y151609D01*
X121875Y152130D01*
X121085Y152458D01*
X120236Y152569D01*
D02*
G37*
G36*
X112236D02*
X111388Y152458D01*
X110597Y152130D01*
X109918Y151609D01*
X109397Y150930D01*
X109070Y150140D01*
X108958Y149291D01*
X109070Y148443D01*
X109397Y147652D01*
X109918Y146973D01*
X110597Y146452D01*
X111388Y146125D01*
X112236Y146013D01*
X113085Y146125D01*
X113875Y146452D01*
X114554Y146973D01*
X115075Y147652D01*
X115403Y148443D01*
X115514Y149291D01*
X115403Y150140D01*
X115075Y150930D01*
X114554Y151609D01*
X113875Y152130D01*
X113085Y152458D01*
X112236Y152569D01*
D02*
G37*
G36*
X104236D02*
X103388Y152458D01*
X102597Y152130D01*
X101918Y151609D01*
X101397Y150930D01*
X101070Y150140D01*
X100958Y149291D01*
X101070Y148443D01*
X101397Y147652D01*
X101918Y146973D01*
X102597Y146452D01*
X103388Y146125D01*
X104236Y146013D01*
X105085Y146125D01*
X105875Y146452D01*
X106554Y146973D01*
X107075Y147652D01*
X107403Y148443D01*
X107514Y149291D01*
X107403Y150140D01*
X107075Y150930D01*
X106554Y151609D01*
X105875Y152130D01*
X105085Y152458D01*
X104236Y152569D01*
D02*
G37*
G36*
X96236D02*
X95388Y152458D01*
X94597Y152130D01*
X93918Y151609D01*
X93397Y150930D01*
X93070Y150140D01*
X92958Y149291D01*
X93070Y148443D01*
X93397Y147652D01*
X93918Y146973D01*
X94597Y146452D01*
X95388Y146125D01*
X96236Y146013D01*
X97085Y146125D01*
X97875Y146452D01*
X98554Y146973D01*
X99075Y147652D01*
X99403Y148443D01*
X99514Y149291D01*
X99403Y150140D01*
X99075Y150930D01*
X98554Y151609D01*
X97875Y152130D01*
X97085Y152458D01*
X96236Y152569D01*
D02*
G37*
G36*
X124236Y145569D02*
X123388Y145458D01*
X122597Y145130D01*
X121918Y144609D01*
X121397Y143930D01*
X121070Y143140D01*
X120958Y142291D01*
X121070Y141443D01*
X121397Y140652D01*
X121918Y139973D01*
X122597Y139453D01*
X123388Y139125D01*
X124236Y139013D01*
X125085Y139125D01*
X125875Y139453D01*
X126554Y139973D01*
X127075Y140652D01*
X127403Y141443D01*
X127514Y142291D01*
X127403Y143140D01*
X127075Y143930D01*
X126554Y144609D01*
X125875Y145130D01*
X125085Y145458D01*
X124236Y145569D01*
D02*
G37*
G36*
X100236D02*
X99388Y145458D01*
X98597Y145130D01*
X97918Y144609D01*
X97397Y143930D01*
X97070Y143140D01*
X96958Y142291D01*
X97070Y141443D01*
X97397Y140652D01*
X97918Y139973D01*
X98597Y139453D01*
X99388Y139125D01*
X100236Y139013D01*
X101085Y139125D01*
X101875Y139453D01*
X102554Y139973D01*
X103075Y140652D01*
X103403Y141443D01*
X103514Y142291D01*
X103403Y143140D01*
X103075Y143930D01*
X102554Y144609D01*
X101875Y145130D01*
X101085Y145458D01*
X100236Y145569D01*
D02*
G37*
G36*
X162205Y138537D02*
X161619Y138421D01*
X161123Y138089D01*
X160792Y137593D01*
X160675Y137008D01*
X160792Y136423D01*
X161123Y135926D01*
X161619Y135595D01*
X162205Y135478D01*
X162790Y135595D01*
X163286Y135926D01*
X163618Y136423D01*
X163734Y137008D01*
X163618Y137593D01*
X163286Y138089D01*
X162790Y138421D01*
X162205Y138537D01*
D02*
G37*
G36*
X198819Y127907D02*
X198234Y127791D01*
X197738Y127459D01*
X197406Y126963D01*
X197290Y126378D01*
X197406Y125793D01*
X197738Y125296D01*
X198234Y124965D01*
X198819Y124849D01*
X199404Y124965D01*
X199900Y125296D01*
X200232Y125793D01*
X200348Y126378D01*
X200232Y126963D01*
X199900Y127459D01*
X199404Y127791D01*
X198819Y127907D01*
D02*
G37*
G36*
X170079Y126332D02*
X169493Y126216D01*
X168997Y125885D01*
X168666Y125388D01*
X168549Y124803D01*
X168666Y124218D01*
X168997Y123722D01*
X169493Y123390D01*
X170079Y123274D01*
X170664Y123390D01*
X171160Y123722D01*
X171492Y124218D01*
X171608Y124803D01*
X171492Y125388D01*
X171160Y125885D01*
X170664Y126216D01*
X170079Y126332D01*
D02*
G37*
G36*
X186506Y123979D02*
X185921Y123863D01*
X185424Y123531D01*
X185093Y123035D01*
X184976Y122450D01*
X185093Y121865D01*
X185424Y121369D01*
X185921Y121037D01*
X186506Y120921D01*
X187091Y121037D01*
X187587Y121369D01*
X187919Y121865D01*
X188035Y122450D01*
X187919Y123035D01*
X187587Y123531D01*
X187091Y123863D01*
X186506Y123979D01*
D02*
G37*
G36*
X176740Y120821D02*
X176155Y120704D01*
X175659Y120373D01*
X175465Y120083D01*
X174897D01*
X174704Y120373D01*
X174207Y120704D01*
X173622Y120821D01*
X173037Y120704D01*
X172541Y120373D01*
X172209Y119877D01*
X172093Y119291D01*
X172209Y118706D01*
X172541Y118210D01*
X173037Y117878D01*
X173622Y117762D01*
X174207Y117878D01*
X174704Y118210D01*
X174897Y118500D01*
X175465D01*
X175659Y118210D01*
X176155Y117878D01*
X176740Y117762D01*
X177325Y117878D01*
X177822Y118210D01*
X178153Y118706D01*
X178270Y119291D01*
X178153Y119877D01*
X177822Y120373D01*
X177325Y120704D01*
X176740Y120821D01*
D02*
G37*
G36*
X240158Y127616D02*
X238774Y127434D01*
X237485Y126900D01*
X236378Y126050D01*
X235528Y124943D01*
X234994Y123654D01*
X234812Y122270D01*
X234994Y120887D01*
X235528Y119597D01*
X236378Y118490D01*
X237485Y117640D01*
X238774Y117106D01*
X240158Y116924D01*
X241541Y117106D01*
X242830Y117640D01*
X243937Y118490D01*
X244787Y119597D01*
X245321Y120887D01*
X245503Y122270D01*
X245321Y123654D01*
X244787Y124943D01*
X243937Y126050D01*
X242830Y126900D01*
X241541Y127434D01*
X240158Y127616D01*
D02*
G37*
G36*
X194882Y119640D02*
X194297Y119523D01*
X193800Y119192D01*
X193469Y118695D01*
X193352Y118110D01*
X193469Y117525D01*
X193800Y117029D01*
X194297Y116697D01*
X194882Y116581D01*
X195467Y116697D01*
X195963Y117029D01*
X196295Y117525D01*
X196411Y118110D01*
X196295Y118695D01*
X195963Y119192D01*
X195467Y119523D01*
X194882Y119640D01*
D02*
G37*
G36*
X265158Y116809D02*
X263983Y116654D01*
X262888Y116201D01*
X261948Y115480D01*
X261227Y114540D01*
X260773Y113445D01*
X260619Y112270D01*
X260773Y111095D01*
X261227Y110001D01*
X261948Y109061D01*
X262888Y108339D01*
X263983Y107886D01*
X265158Y107731D01*
X266332Y107886D01*
X267427Y108339D01*
X268367Y109061D01*
X269088Y110001D01*
X269542Y111095D01*
X269696Y112270D01*
X269542Y113445D01*
X269088Y114540D01*
X268367Y115480D01*
X267427Y116201D01*
X266332Y116654D01*
X265158Y116809D01*
D02*
G37*
G36*
X182803Y106667D02*
X175323D01*
X174216Y106521D01*
X173185Y106094D01*
X172299Y105414D01*
X171619Y104528D01*
X171192Y103497D01*
X171046Y102390D01*
X171192Y101283D01*
X171619Y100251D01*
X172299Y99366D01*
X173185Y98686D01*
X174216Y98259D01*
X175323Y98113D01*
X182803D01*
X183910Y98259D01*
X184941Y98686D01*
X185827Y99366D01*
X186507Y100251D01*
X186934Y101283D01*
X187080Y102390D01*
X186934Y103497D01*
X186507Y104528D01*
X185827Y105414D01*
X184941Y106094D01*
X183910Y106521D01*
X182803Y106667D01*
D02*
G37*
G36*
X199535Y100564D02*
X198428Y100418D01*
X197397Y99991D01*
X196511Y99312D01*
X195832Y98426D01*
X195404Y97394D01*
X195259Y96287D01*
Y88807D01*
X195404Y87700D01*
X195832Y86669D01*
X196511Y85783D01*
X197397Y85103D01*
X198428Y84676D01*
X199535Y84530D01*
X200642Y84676D01*
X201674Y85103D01*
X202559Y85783D01*
X203239Y86669D01*
X203666Y87700D01*
X203812Y88807D01*
Y96287D01*
X203666Y97394D01*
X203239Y98426D01*
X202559Y99312D01*
X201674Y99991D01*
X200642Y100418D01*
X199535Y100564D01*
D02*
G37*
G36*
X255157Y77616D02*
X253774Y77434D01*
X252485Y76900D01*
X251378Y76050D01*
X250528Y74943D01*
X249994Y73654D01*
X249812Y72270D01*
X249994Y70886D01*
X250528Y69597D01*
X251378Y68490D01*
X252485Y67641D01*
X253774Y67106D01*
X255157Y66924D01*
X256541Y67106D01*
X257830Y67641D01*
X258938Y68490D01*
X259787Y69597D01*
X260321Y70886D01*
X260503Y72270D01*
X260321Y73654D01*
X259787Y74943D01*
X258938Y76050D01*
X257830Y76900D01*
X256541Y77434D01*
X255157Y77616D01*
D02*
G37*
G36*
X225157D02*
X223774Y77434D01*
X222485Y76900D01*
X221377Y76050D01*
X220528Y74943D01*
X219994Y73654D01*
X219812Y72270D01*
X219994Y70886D01*
X220528Y69597D01*
X221377Y68490D01*
X222485Y67641D01*
X223774Y67106D01*
X225157Y66924D01*
X226541Y67106D01*
X227830Y67641D01*
X228938Y68490D01*
X229787Y69597D01*
X230321Y70886D01*
X230503Y72270D01*
X230321Y73654D01*
X229787Y74943D01*
X228938Y76050D01*
X227830Y76900D01*
X226541Y77434D01*
X225157Y77616D01*
D02*
G37*
G36*
X120236Y69648D02*
X119388Y69536D01*
X118597Y69209D01*
X117918Y68688D01*
X117397Y68009D01*
X117070Y67219D01*
X116958Y66370D01*
X117070Y65522D01*
X117397Y64731D01*
X117918Y64052D01*
X118597Y63531D01*
X119388Y63204D01*
X120236Y63092D01*
X121085Y63204D01*
X121875Y63531D01*
X122554Y64052D01*
X123075Y64731D01*
X123403Y65522D01*
X123514Y66370D01*
X123403Y67219D01*
X123075Y68009D01*
X122554Y68688D01*
X121875Y69209D01*
X121085Y69536D01*
X120236Y69648D01*
D02*
G37*
G36*
X96236D02*
X95388Y69536D01*
X94597Y69209D01*
X93918Y68688D01*
X93397Y68009D01*
X93070Y67219D01*
X92958Y66370D01*
X93070Y65522D01*
X93397Y64731D01*
X93918Y64052D01*
X94597Y63531D01*
X95388Y63204D01*
X96236Y63092D01*
X97085Y63204D01*
X97875Y63531D01*
X98554Y64052D01*
X99075Y64731D01*
X99403Y65522D01*
X99514Y66370D01*
X99403Y67219D01*
X99075Y68009D01*
X98554Y68688D01*
X97875Y69209D01*
X97085Y69536D01*
X96236Y69648D01*
D02*
G37*
G36*
X215158Y66509D02*
X213983Y66354D01*
X212888Y65901D01*
X211948Y65180D01*
X211227Y64240D01*
X210773Y63145D01*
X210619Y61970D01*
X210773Y60795D01*
X211227Y59701D01*
X211948Y58761D01*
X212888Y58039D01*
X213983Y57586D01*
X215158Y57431D01*
X216332Y57586D01*
X217427Y58039D01*
X218367Y58761D01*
X219088Y59701D01*
X219542Y60795D01*
X219696Y61970D01*
X219542Y63145D01*
X219088Y64240D01*
X218367Y65180D01*
X217427Y65901D01*
X216332Y66354D01*
X215158Y66509D01*
D02*
G37*
G36*
X124236Y62648D02*
X123388Y62536D01*
X122597Y62209D01*
X121918Y61688D01*
X121397Y61009D01*
X121070Y60219D01*
X120958Y59370D01*
X121070Y58522D01*
X121397Y57731D01*
X121918Y57052D01*
X122597Y56531D01*
X123388Y56204D01*
X124236Y56092D01*
X125085Y56204D01*
X125875Y56531D01*
X126554Y57052D01*
X127075Y57731D01*
X127403Y58522D01*
X127514Y59370D01*
X127403Y60219D01*
X127075Y61009D01*
X126554Y61688D01*
X125875Y62209D01*
X125085Y62536D01*
X124236Y62648D01*
D02*
G37*
G36*
X116236D02*
X115388Y62536D01*
X114597Y62209D01*
X113918Y61688D01*
X113397Y61009D01*
X113070Y60219D01*
X112958Y59370D01*
X113070Y58522D01*
X113397Y57731D01*
X113918Y57052D01*
X114597Y56531D01*
X115388Y56204D01*
X116236Y56092D01*
X117085Y56204D01*
X117875Y56531D01*
X118554Y57052D01*
X119075Y57731D01*
X119403Y58522D01*
X119514Y59370D01*
X119403Y60219D01*
X119075Y61009D01*
X118554Y61688D01*
X117875Y62209D01*
X117085Y62536D01*
X116236Y62648D01*
D02*
G37*
G36*
X108236D02*
X107388Y62536D01*
X106597Y62209D01*
X105918Y61688D01*
X105397Y61009D01*
X105070Y60219D01*
X104958Y59370D01*
X105070Y58522D01*
X105397Y57731D01*
X105918Y57052D01*
X106597Y56531D01*
X107388Y56204D01*
X108236Y56092D01*
X109085Y56204D01*
X109875Y56531D01*
X110554Y57052D01*
X111075Y57731D01*
X111403Y58522D01*
X111514Y59370D01*
X111403Y60219D01*
X111075Y61009D01*
X110554Y61688D01*
X109875Y62209D01*
X109085Y62536D01*
X108236Y62648D01*
D02*
G37*
G36*
X100236D02*
X99388Y62536D01*
X98597Y62209D01*
X97918Y61688D01*
X97397Y61009D01*
X97070Y60219D01*
X96958Y59370D01*
X97070Y58522D01*
X97397Y57731D01*
X97918Y57052D01*
X98597Y56531D01*
X99388Y56204D01*
X100236Y56092D01*
X101085Y56204D01*
X101875Y56531D01*
X102554Y57052D01*
X103075Y57731D01*
X103403Y58522D01*
X103514Y59370D01*
X103403Y60219D01*
X103075Y61009D01*
X102554Y61688D01*
X101875Y62209D01*
X101085Y62536D01*
X100236Y62648D01*
D02*
G37*
G36*
X135236Y56304D02*
X133884Y56170D01*
X132583Y55776D01*
X131384Y55135D01*
X130334Y54273D01*
X129471Y53222D01*
X128831Y52023D01*
X128436Y50723D01*
X128303Y49370D01*
X128436Y48017D01*
X128831Y46717D01*
X129471Y45518D01*
X130334Y44467D01*
X131384Y43605D01*
X132583Y42965D01*
X133884Y42570D01*
X135236Y42437D01*
X136589Y42570D01*
X137890Y42965D01*
X139088Y43605D01*
X140139Y44467D01*
X141001Y45518D01*
X141642Y46717D01*
X142036Y48017D01*
X142170Y49370D01*
X142036Y50723D01*
X141642Y52023D01*
X141001Y53222D01*
X140139Y54273D01*
X139088Y55135D01*
X137890Y55776D01*
X136589Y56170D01*
X135236Y56304D01*
D02*
G37*
G36*
X85236D02*
X83884Y56170D01*
X82583Y55776D01*
X81384Y55135D01*
X80334Y54273D01*
X79471Y53222D01*
X78831Y52023D01*
X78436Y50723D01*
X78303Y49370D01*
X78436Y48017D01*
X78831Y46717D01*
X79471Y45518D01*
X80334Y44467D01*
X81384Y43605D01*
X82583Y42965D01*
X83884Y42570D01*
X85236Y42437D01*
X86589Y42570D01*
X87889Y42965D01*
X89088Y43605D01*
X90139Y44467D01*
X91001Y45518D01*
X91642Y46717D01*
X92036Y48017D01*
X92170Y49370D01*
X92036Y50723D01*
X91642Y52023D01*
X91001Y53222D01*
X90139Y54273D01*
X89088Y55135D01*
X87889Y55776D01*
X86589Y56170D01*
X85236Y56304D01*
D02*
G37*
%LPD*%
D39*
X78236Y145791D02*
D03*
X142236D02*
D03*
X78236Y62870D02*
D03*
X142236D02*
D03*
D40*
X116236Y142291D02*
D03*
X108236D02*
D03*
X112236Y66370D02*
D03*
X104236D02*
D03*
D41*
X240158Y61970D02*
D03*
D44*
X179063Y48453D02*
D03*
D45*
X134252Y150000D02*
D03*
X135827Y146850D02*
D03*
X104331Y54724D02*
D03*
X111811D02*
D03*
X120472Y55118D02*
D03*
X120079Y70866D02*
D03*
X112205Y70866D02*
D03*
X100000Y152362D02*
D03*
X105512Y160236D02*
D03*
X118898Y160630D02*
D03*
X111417D02*
D03*
X135039Y120079D02*
D03*
X130709Y130709D02*
D03*
Y137402D02*
D03*
Y141339D02*
D03*
X135827Y141732D02*
D03*
X283465Y153543D02*
D03*
Y129921D02*
D03*
Y106299D02*
D03*
X289370Y94488D02*
D03*
X283465Y82677D02*
D03*
X289370Y70866D02*
D03*
X283465Y59055D02*
D03*
X271654Y153543D02*
D03*
X277559Y141732D02*
D03*
X271654Y129921D02*
D03*
X277559Y118110D02*
D03*
X271654Y106299D02*
D03*
X277559Y94488D02*
D03*
X271654Y82677D02*
D03*
X277559Y70866D02*
D03*
X271654Y59055D02*
D03*
X259842Y129921D02*
D03*
Y106299D02*
D03*
X265748Y94488D02*
D03*
X259842Y82677D02*
D03*
X265748Y70866D02*
D03*
X259842Y59055D02*
D03*
X248031Y153543D02*
D03*
X253937Y141732D02*
D03*
X248031Y129921D02*
D03*
X253937Y118110D02*
D03*
X248031Y106299D02*
D03*
X253937Y94488D02*
D03*
X248031Y82677D02*
D03*
Y59055D02*
D03*
X236220Y153543D02*
D03*
X242126Y141732D02*
D03*
X236220Y129921D02*
D03*
Y106299D02*
D03*
X242126Y94488D02*
D03*
X236220Y82677D02*
D03*
X242126Y70866D02*
D03*
X224409Y153543D02*
D03*
X230315Y141732D02*
D03*
X224409Y129921D02*
D03*
X230315Y118110D02*
D03*
X224409Y106299D02*
D03*
X230315Y94488D02*
D03*
X224409Y82677D02*
D03*
Y59055D02*
D03*
X212598Y153543D02*
D03*
X218504Y141732D02*
D03*
X212598Y129921D02*
D03*
X218504Y118110D02*
D03*
X212598Y106299D02*
D03*
X218504Y94488D02*
D03*
X212598Y82677D02*
D03*
X218504Y70866D02*
D03*
X200787Y153543D02*
D03*
X206693Y141732D02*
D03*
X200787Y129921D02*
D03*
Y106299D02*
D03*
X206693Y94488D02*
D03*
X200787Y82677D02*
D03*
X206693Y70866D02*
D03*
X200787Y59055D02*
D03*
X188976Y153543D02*
D03*
X194882Y141732D02*
D03*
X188976Y129921D02*
D03*
Y106299D02*
D03*
Y82677D02*
D03*
X194882Y70866D02*
D03*
X188976Y59055D02*
D03*
X177165Y153543D02*
D03*
X183071Y141732D02*
D03*
X177165Y129921D02*
D03*
X183071Y94488D02*
D03*
X177165Y82677D02*
D03*
X183071Y70866D02*
D03*
X177165Y59055D02*
D03*
X165354Y153543D02*
D03*
Y106299D02*
D03*
X171260Y94488D02*
D03*
X165354Y82677D02*
D03*
X171260Y70866D02*
D03*
X165354Y59055D02*
D03*
X153543Y153543D02*
D03*
Y129921D02*
D03*
Y106299D02*
D03*
X159449Y94488D02*
D03*
X153543Y82677D02*
D03*
X159449Y70866D02*
D03*
X153543Y59055D02*
D03*
X141732Y153543D02*
D03*
X147638Y141732D02*
D03*
X141732Y129921D02*
D03*
Y106299D02*
D03*
X147638Y94488D02*
D03*
X141732Y82677D02*
D03*
X147638Y70866D02*
D03*
X129921Y106299D02*
D03*
X135827Y94488D02*
D03*
X129921Y82677D02*
D03*
X135827Y70866D02*
D03*
X118110Y153543D02*
D03*
Y129921D02*
D03*
X124016Y118110D02*
D03*
Y94488D02*
D03*
X106299Y129921D02*
D03*
X112205Y118110D02*
D03*
Y94488D02*
D03*
X100394Y118110D02*
D03*
X94488Y59055D02*
D03*
X88583Y94488D02*
D03*
X82677Y82677D02*
D03*
X88583Y70866D02*
D03*
X82677Y59055D02*
D03*
X139370Y124016D02*
D03*
X92520Y143701D02*
D03*
X124803Y151575D02*
D03*
X112205Y154331D02*
D03*
X149606Y124016D02*
D03*
X131496D02*
D03*
X130709Y146457D02*
D03*
X144882Y118504D02*
D03*
X161811Y113779D02*
D03*
X170079D02*
D03*
X150000Y113386D02*
D03*
X142126D02*
D03*
X132677D02*
D03*
X122047Y112205D02*
D03*
X118110Y108268D02*
D03*
X124130Y104704D02*
D03*
X120079Y100394D02*
D03*
Y88583D02*
D03*
Y80709D02*
D03*
X106299Y112205D02*
D03*
X100394Y125984D02*
D03*
X108268Y100394D02*
D03*
X102362Y106299D02*
D03*
X96457Y112205D02*
D03*
X92520Y118110D02*
D03*
Y125984D02*
D03*
Y133858D02*
D03*
X100394Y137008D02*
D03*
X153150Y118504D02*
D03*
X112992Y104724D02*
D03*
X112205Y81890D02*
D03*
X170472Y118504D02*
D03*
X186614Y109843D02*
D03*
X174803Y112992D02*
D03*
X70866Y165354D02*
D03*
X102362D02*
D03*
X110236D02*
D03*
X118110D02*
D03*
X125984D02*
D03*
X141732D02*
D03*
X149606D02*
D03*
X157480D02*
D03*
X165354D02*
D03*
X173228D02*
D03*
X181102D02*
D03*
X188976D02*
D03*
X196850D02*
D03*
X204724D02*
D03*
X212598D02*
D03*
X220472D02*
D03*
X228346D02*
D03*
X236220D02*
D03*
X244094D02*
D03*
X251968D02*
D03*
X259842D02*
D03*
X267716D02*
D03*
X275590D02*
D03*
X283464D02*
D03*
X62992D02*
D03*
X283464Y43307D02*
D03*
X275590D02*
D03*
X267716D02*
D03*
X259842D02*
D03*
X251968D02*
D03*
X244094D02*
D03*
X236220D02*
D03*
X228346D02*
D03*
X220472D02*
D03*
X212598D02*
D03*
X204724D02*
D03*
X196850D02*
D03*
X188976D02*
D03*
X181102D02*
D03*
X173228D02*
D03*
X165354D02*
D03*
X157480D02*
D03*
X149606D02*
D03*
X141732D02*
D03*
X125984D02*
D03*
X118110D02*
D03*
X110236D02*
D03*
X102362D02*
D03*
X94488D02*
D03*
X78740D02*
D03*
X70866D02*
D03*
X189764Y118898D02*
D03*
X181890Y119291D02*
D03*
X107480Y137008D02*
D03*
X129528Y118898D02*
D03*
X167323Y131496D02*
D03*
X180709Y146850D02*
D03*
X158268Y137008D02*
D03*
X291339Y165354D02*
D03*
Y157480D02*
D03*
Y149606D02*
D03*
Y141732D02*
D03*
Y133858D02*
D03*
Y125984D02*
D03*
Y118110D02*
D03*
Y110236D02*
D03*
Y98425D02*
D03*
Y90551D02*
D03*
Y82677D02*
D03*
Y74803D02*
D03*
Y66929D02*
D03*
Y59055D02*
D03*
Y51181D02*
D03*
Y43307D02*
D03*
Y104331D02*
D03*
X62992D02*
D03*
Y157480D02*
D03*
Y149606D02*
D03*
Y141732D02*
D03*
Y133858D02*
D03*
Y125984D02*
D03*
Y118110D02*
D03*
Y110236D02*
D03*
Y98425D02*
D03*
Y90551D02*
D03*
Y82677D02*
D03*
Y74803D02*
D03*
Y66929D02*
D03*
Y59055D02*
D03*
Y51181D02*
D03*
Y43307D02*
D03*
X257480Y148031D02*
D03*
M02*
