G04*
G04 #@! TF.GenerationSoftware,Altium Limited,Altium Designer,20.2.3 (150)*
G04*
G04 Layer_Physical_Order=1*
G04 Layer_Color=255*
%FSLAX25Y25*%
%MOIN*%
G70*
G04*
G04 #@! TF.SameCoordinates,D589E21F-5B4D-4C87-A750-38AF030900ED*
G04*
G04*
G04 #@! TF.FilePolarity,Positive*
G04*
G01*
G75*
%ADD10C,0.01000*%
G04:AMPARAMS|DCode=18|XSize=57.09mil|YSize=11.81mil|CornerRadius=1.48mil|HoleSize=0mil|Usage=FLASHONLY|Rotation=90.000|XOffset=0mil|YOffset=0mil|HoleType=Round|Shape=RoundedRectangle|*
%AMROUNDEDRECTD18*
21,1,0.05709,0.00886,0,0,90.0*
21,1,0.05413,0.01181,0,0,90.0*
1,1,0.00295,0.00443,0.02707*
1,1,0.00295,0.00443,-0.02707*
1,1,0.00295,-0.00443,-0.02707*
1,1,0.00295,-0.00443,0.02707*
%
%ADD18ROUNDEDRECTD18*%
%ADD19R,0.01575X0.01890*%
%ADD20R,0.02362X0.01968*%
%ADD21R,0.03543X0.05118*%
%ADD22R,0.01968X0.01968*%
%ADD23R,0.01968X0.01968*%
%ADD37R,0.02165X0.03150*%
%ADD38C,0.08200*%
%ADD39C,0.05500*%
%ADD40C,0.08000*%
%ADD41C,0.09600*%
%ADD42O,0.07480X0.14961*%
%ADD43O,0.14961X0.07480*%
%ADD44C,0.02000*%
G36*
X66929Y40390D02*
X60075D01*
Y168272D01*
X66929D01*
Y40390D01*
D02*
G37*
G36*
X294256D02*
X287402D01*
Y168272D01*
X294256D01*
X294256Y40390D01*
D02*
G37*
D10*
X126772Y100787D02*
X151969D01*
X117323Y104724D02*
X151969D01*
X120236Y94252D02*
X126772Y100787D01*
X120236Y66370D02*
Y94252D01*
X104331Y117717D02*
Y138197D01*
Y117717D02*
X117323Y104724D01*
X100236Y142291D02*
X104331Y138197D01*
X194488Y109843D02*
Y113976D01*
X184630Y119307D02*
Y124787D01*
X186614Y114370D02*
Y124803D01*
Y114370D02*
X186811Y114173D01*
X184614Y119291D02*
X184630Y119307D01*
Y124787D02*
X184646Y124803D01*
X194291Y114173D02*
X194488Y113976D01*
X273031Y112270D02*
Y152362D01*
X265354Y148031D02*
Y152165D01*
X265551Y152362D01*
X188673Y126378D02*
X197638D01*
X188583Y126287D02*
X188673Y126378D01*
X188583Y124803D02*
Y126287D01*
X202756Y118110D02*
Y121417D01*
X194380Y122450D02*
X197629D01*
X197638Y122441D01*
X197638Y122441D01*
X181496Y119291D02*
X182677Y120472D01*
X175197Y128740D02*
Y131496D01*
X187200Y146697D02*
X188430D01*
X186614Y142126D02*
Y146112D01*
X187200Y146697D01*
X188430D02*
X188583Y146850D01*
X186614Y142126D02*
X186614Y142126D01*
X188583Y142126D02*
Y146850D01*
X169882Y134252D02*
X169980Y134350D01*
Y136909D01*
X170079Y137008D01*
Y139370D01*
X166142Y137008D02*
Y139370D01*
X166142Y137008D02*
X166142Y137008D01*
X166142Y134252D02*
Y137008D01*
X202638Y126496D02*
X202756Y126614D01*
X197756Y126496D02*
X202638D01*
X197638Y126378D02*
X197756Y126496D01*
X175197Y124803D02*
X177953D01*
X169882D02*
X175197D01*
X177953D02*
X180709D01*
X202756Y126614D02*
X202874Y126496D01*
X188583Y124803D02*
X188673Y124713D01*
X182677Y120472D02*
Y124803D01*
X186937Y102390D02*
Y112992D01*
X186614Y113315D02*
X186937Y112992D01*
X202874Y126496D02*
X206575D01*
X206693Y126378D01*
D18*
X180709Y142126D02*
D03*
X182677D02*
D03*
X184646D02*
D03*
X186614D02*
D03*
X188583D02*
D03*
Y124803D02*
D03*
X186614D02*
D03*
X184646D02*
D03*
X180709D02*
D03*
X182677D02*
D03*
D19*
X202756Y126614D02*
D03*
Y121417D02*
D03*
D20*
X151969Y100787D02*
D03*
Y104724D02*
D03*
X197638Y122441D02*
D03*
Y126378D02*
D03*
D21*
X265551Y152362D02*
D03*
X273031D02*
D03*
X194291Y114173D02*
D03*
X186811D02*
D03*
D22*
X175197Y124803D02*
D03*
Y128740D02*
D03*
D23*
X170079Y139764D02*
D03*
X166142D02*
D03*
D37*
X169882Y134252D02*
D03*
X166142D02*
D03*
X162402D02*
D03*
Y124803D02*
D03*
X169882D02*
D03*
D38*
X78236Y145791D02*
D03*
X142236D02*
D03*
Y62870D02*
D03*
X78236D02*
D03*
D39*
X124236Y142291D02*
D03*
X120236Y149291D02*
D03*
X116236Y142291D02*
D03*
X112236Y149291D02*
D03*
X108236Y142291D02*
D03*
X104236Y149291D02*
D03*
X100236Y142291D02*
D03*
X96236Y149291D02*
D03*
Y66370D02*
D03*
X100236Y59370D02*
D03*
X104236Y66370D02*
D03*
X108236Y59370D02*
D03*
X112236Y66370D02*
D03*
X116236Y59370D02*
D03*
X120236Y66370D02*
D03*
X124236Y59370D02*
D03*
D40*
X273031Y112270D02*
D03*
X248031Y61970D02*
D03*
X223031D02*
D03*
D41*
X263032Y72270D02*
D03*
X233032D02*
D03*
X248031Y122270D02*
D03*
D42*
X207410Y92547D02*
D03*
D43*
X186937Y102390D02*
D03*
Y48453D02*
D03*
D44*
X100394Y137008D02*
D03*
X194488Y109843D02*
D03*
X182677Y112992D02*
D03*
X184614Y119291D02*
D03*
X70866Y165354D02*
D03*
X102362D02*
D03*
X110236D02*
D03*
X118110D02*
D03*
X125984D02*
D03*
X141732D02*
D03*
X149606D02*
D03*
X157480D02*
D03*
X165354D02*
D03*
X173228D02*
D03*
X181102D02*
D03*
X188976D02*
D03*
X196850D02*
D03*
X204724D02*
D03*
X212598D02*
D03*
X220472D02*
D03*
X228346D02*
D03*
X236220D02*
D03*
X244094D02*
D03*
X251968D02*
D03*
X259842D02*
D03*
X267716D02*
D03*
X275590D02*
D03*
X283464D02*
D03*
X62992D02*
D03*
X283464Y43307D02*
D03*
X275590D02*
D03*
X267716D02*
D03*
X259842D02*
D03*
X251968D02*
D03*
X244094D02*
D03*
X236220D02*
D03*
X228346D02*
D03*
X220472D02*
D03*
X212598D02*
D03*
X204724D02*
D03*
X196850D02*
D03*
X188976D02*
D03*
X181102D02*
D03*
X173228D02*
D03*
X165354D02*
D03*
X157480D02*
D03*
X149606D02*
D03*
X141732D02*
D03*
X125984D02*
D03*
X118110D02*
D03*
X110236D02*
D03*
X102362D02*
D03*
X94488D02*
D03*
X78740D02*
D03*
X70866D02*
D03*
X112992Y104724D02*
D03*
X112205Y81890D02*
D03*
X197638Y118898D02*
D03*
X189764Y119291D02*
D03*
X107480Y137008D02*
D03*
X153150Y118504D02*
D03*
X178347D02*
D03*
X128347Y118110D02*
D03*
X202756D02*
D03*
X194380Y122450D02*
D03*
X181496Y119291D02*
D03*
X175197Y131496D02*
D03*
X188583Y146850D02*
D03*
X170079Y137008D02*
D03*
X166142D02*
D03*
X177953Y124803D02*
D03*
X206693Y126378D02*
D03*
X291339Y165354D02*
D03*
Y157480D02*
D03*
Y149606D02*
D03*
Y141732D02*
D03*
Y133858D02*
D03*
Y125984D02*
D03*
Y118110D02*
D03*
Y110236D02*
D03*
Y98425D02*
D03*
Y90551D02*
D03*
Y82677D02*
D03*
Y74803D02*
D03*
Y66929D02*
D03*
Y59055D02*
D03*
Y51181D02*
D03*
Y43307D02*
D03*
Y104331D02*
D03*
X62992D02*
D03*
Y157480D02*
D03*
Y149606D02*
D03*
Y141732D02*
D03*
Y133858D02*
D03*
Y125984D02*
D03*
Y118110D02*
D03*
Y110236D02*
D03*
Y98425D02*
D03*
Y90551D02*
D03*
Y82677D02*
D03*
Y74803D02*
D03*
Y66929D02*
D03*
Y59055D02*
D03*
Y51181D02*
D03*
Y43307D02*
D03*
X265354Y148031D02*
D03*
M02*
