G04*
G04 #@! TF.GenerationSoftware,Altium Limited,Altium Designer,20.2.3 (150)*
G04*
G04 Layer_Color=8388736*
%FSLAX25Y25*%
%MOIN*%
G70*
G04*
G04 #@! TF.SameCoordinates,3E38D990-C2B7-4735-83C5-0ECDFB60B5A1*
G04*
G04*
G04 #@! TF.FilePolarity,Negative*
G04*
G01*
G75*
G04:AMPARAMS|DCode=24|XSize=61.02mil|YSize=15.75mil|CornerRadius=3.45mil|HoleSize=0mil|Usage=FLASHONLY|Rotation=90.000|XOffset=0mil|YOffset=0mil|HoleType=Round|Shape=RoundedRectangle|*
%AMROUNDEDRECTD24*
21,1,0.06102,0.00886,0,0,90.0*
21,1,0.05413,0.01575,0,0,90.0*
1,1,0.00689,0.00443,0.02707*
1,1,0.00689,0.00443,-0.02707*
1,1,0.00689,-0.00443,-0.02707*
1,1,0.00689,-0.00443,0.02707*
%
%ADD24ROUNDEDRECTD24*%
%ADD25R,0.01975X0.02290*%
%ADD26R,0.02762X0.02368*%
%ADD27R,0.03943X0.05518*%
%ADD28R,0.02368X0.02368*%
%ADD29R,0.02368X0.02368*%
%ADD30C,0.08600*%
%ADD31C,0.05900*%
%ADD32C,0.08400*%
%ADD33C,0.10000*%
%ADD34O,0.07880X0.15361*%
%ADD35O,0.15361X0.07880*%
%ADD36C,0.02400*%
G36*
X66929Y40390D02*
X60075D01*
Y168272D01*
X66929D01*
Y40390D01*
D02*
G37*
G36*
X294256D02*
X287402D01*
Y168272D01*
X294256D01*
X294256Y40390D01*
D02*
G37*
D24*
X180709Y142126D02*
D03*
X182677D02*
D03*
X184646D02*
D03*
X186614D02*
D03*
X188583D02*
D03*
Y124803D02*
D03*
X186614D02*
D03*
X184646D02*
D03*
X180709D02*
D03*
X182677D02*
D03*
D25*
X202756Y126614D02*
D03*
Y121417D02*
D03*
D26*
X151969Y104724D02*
D03*
Y100787D02*
D03*
X197638Y122441D02*
D03*
Y126378D02*
D03*
D27*
X265551Y152362D02*
D03*
X273031D02*
D03*
X194291Y114173D02*
D03*
X186811D02*
D03*
D28*
X175197Y124803D02*
D03*
Y128740D02*
D03*
D29*
X170079Y139764D02*
D03*
X166142D02*
D03*
D30*
X142236Y62870D02*
D03*
X78236D02*
D03*
Y145791D02*
D03*
X142236D02*
D03*
D31*
X96236Y66370D02*
D03*
X100236Y59370D02*
D03*
X104236Y66370D02*
D03*
X108236Y59370D02*
D03*
X112236Y66370D02*
D03*
X116236Y59370D02*
D03*
X120236Y66370D02*
D03*
X124236Y59370D02*
D03*
Y142291D02*
D03*
X120236Y149291D02*
D03*
X116236Y142291D02*
D03*
X112236Y149291D02*
D03*
X108236Y142291D02*
D03*
X104236Y149291D02*
D03*
X100236Y142291D02*
D03*
X96236Y149291D02*
D03*
D32*
X273031Y112270D02*
D03*
X248031Y61970D02*
D03*
X223031D02*
D03*
D33*
X263032Y72270D02*
D03*
X233032D02*
D03*
X248031Y122270D02*
D03*
D34*
X207410Y92547D02*
D03*
D35*
X186937Y102390D02*
D03*
Y48453D02*
D03*
D36*
X62992Y165354D02*
D03*
X291339D02*
D03*
Y157480D02*
D03*
Y149606D02*
D03*
Y141732D02*
D03*
Y133858D02*
D03*
Y125984D02*
D03*
Y118110D02*
D03*
Y110236D02*
D03*
Y98425D02*
D03*
Y90551D02*
D03*
Y82677D02*
D03*
Y74803D02*
D03*
Y66929D02*
D03*
Y59055D02*
D03*
Y51181D02*
D03*
Y43307D02*
D03*
Y104331D02*
D03*
X62992D02*
D03*
Y157480D02*
D03*
Y149606D02*
D03*
Y141732D02*
D03*
Y133858D02*
D03*
Y125984D02*
D03*
Y118110D02*
D03*
Y110236D02*
D03*
Y98425D02*
D03*
Y90551D02*
D03*
Y82677D02*
D03*
Y74803D02*
D03*
Y66929D02*
D03*
Y59055D02*
D03*
Y51181D02*
D03*
Y43307D02*
D03*
M02*
