M48
;Layer_Color=9474304
;FILE_FORMAT=2:5
INCH,LZ
;TYPE=PLATED
T1F00S00C0.01200
T2F00S00C0.03500
T4F00S00C0.06000
T5F00S00C0.06200
T6F00S00C0.09600
T7F00S00C0.12800
%
T01
X0062992Y0043307
X0070866
X007874
X0094488
X0102362
X0110236
X011811
X0125984
X0141732
X0149606
X0112205Y008189
X0112992Y0104724
X0128347Y011811
X015315Y0118504
X010748Y0137008
X0100394
X0062992Y0133858
Y0141732
Y0149606
Y0125984
Y011811
Y0110236
Y0104331
Y0098425
Y0090551
Y0082677
Y0074803
Y0066929
Y0059055
Y0051181
X015748Y0043307
X0165354
X0173228
X0181102
X0188976
X019685
X0204724
X0212598
X0220472
X0228346
X023622
X0244094
X0251968
X0259842
X0267716
X027559
X0283464
X0291339
Y0051181
Y0059055
Y0066929
Y0074803
Y0082677
Y0090551
Y0098425
Y0104331
Y0110236
Y011811
Y0125984
Y0133858
Y0141732
Y0149606
X0265354Y0148031
X0188583Y014685
X0170079Y0137008
X0166142
X0175197Y0131496
X0177953Y0124803
X0178347Y0118504
X0181496Y0119291
X0184614
X0189764
X019438Y012245
X0197638Y0118898
X0202756Y011811
X0206693Y0126378
X0194488Y0109843
X0182677Y0112992
X0181102Y0165354
X0173228
X0165354
X015748
X0188976
X019685
X0204724
X0212598
X0220472
X0228346
X023622
X0244094
X0251968
X0259842
X0267716
X027559
X0283464
X0291339
Y015748
X0149606Y0165354
X0141732
X0125984
X011811
X0110236
X0102362
X0070866
X0062992
Y015748
T02
X0100236Y005937
X0108236
X0116236
X0124236
X0120236Y006637
X0112236
X0104236
X0096236
X0100236Y0142291
X0108236
X0116236
X0124236
X0120236Y0149291
X0112236
X0104236
X0096236
T04
X0223031Y006197
X0248031
X0273031Y011227
T05
X0078236Y006287
X0142236
Y0145791
X0078236
T06
X0233032Y007227
X0263032
X0248031Y012227
T07
X0085236Y004937
X0135236
Y0159291
X0085236
M30
