M48
;Layer_Color=9474304
;FILE_FORMAT=2:5
INCH,LZ
;TYPE=PLATED
T1F00S00C0.01200
T2F00S00C0.03500
T4F00S00C0.06000
T5F00S00C0.06200
T6F00S00C0.09600
T7F00S00C0.12800
%
T01
X0062992Y0043307
X0070866
X007874
X0094488
X0102362
X0110236
X011811
X0125984
X0141732
X0149606
X0153543Y0059055
X0147638Y0070866
X0135827
X0120079Y0070866
X0112205Y0070866
X0112205Y008189
X0120079Y0080709
Y0088583
X0124016Y0094488
X0120079Y0100394
X012413Y0104704
X0129921Y0106299
X0132677Y0113386
X0129528Y0118898
X0124016Y011811
X0122047Y0112205
X011811Y0108268
X0112992Y0104724
X0108268Y0100394
X0112205Y0094488
X0102362Y0106299
X0106299Y0112205
X0096457
X0100394Y011811
X009252Y011811
Y0125984
X0100394
X0106299Y0129921
X010748Y0137008
X0100394
X009252Y0133858
Y0143701
X01Y0152362
X0112205Y0154331
X011811Y0153543
X0124803Y0151575
X0134252Y015
X0135827Y014685
X0135827Y0141732
X0130709Y0141339
Y0137402
Y0130709
X0131496Y0124016
X0135039Y0120079
X013937Y0124016
X0141732Y0129921
X0153543
X0149606Y0124016
X015315Y0118504
X0144882
X0142126Y0113386
X0141732Y0106299
X0153543
X015Y0113386
X0147638Y0094488
X0135827
X0141732Y0082677
X0153543
X0129921
X0120472Y0055118
X0111811Y0054724
X0104331
X0094488Y0059055
X0082677
X0088583Y0070866
X0082677Y0082677
X0088583Y0094488
X0062992Y0090551
Y0082677
Y0074803
Y0066929
Y0059055
Y0051181
Y0098425
Y0104331
Y0110236
Y011811
Y0125984
Y0133858
Y0141732
Y0149606
X0130709Y0146457
X0141732Y0153543
X0153543
X0147638Y0141732
X011811Y0129921
X0112205Y011811
X0161811Y0113779
X0170079
X0170472Y0118504
X0173622Y0119291
X017674
X018189
X0186506Y012245
X0189764Y0118898
X0194882Y011811
X0198819Y0126378
X0200787Y0129921
X0212598
X0224409
X023622
X0248031
X0259842
X0271654
X0283465
X0291339Y0125984
Y011811
Y0110236
Y0104331
Y0098425
X028937Y0094488
X0291339Y0090551
Y0082677
Y0074803
X028937Y0070866
X0291339Y0066929
Y0059055
Y0051181
Y0043307
X0283464
X027559
X0267716
X0259842
X0251968
X0244094
X023622
X0228346
X0220472
X0212598
X0204724
X019685
X0188976
X0181102
X0173228
X0165354
X015748
X0165354Y0059055
X0177165
X0188976
X0200787
X0206693Y0070866
X0218504
X0224409Y0082677
X023622
X0248031
X0259842
X0271654
X0283465
X0277559Y0094488
X0265748
X0253937
X0242126
X0230315
X0218504
X0206693
X0212598Y0106299
X0224409
X023622
X0248031
X0259842
X0271654
X0283465
X0277559Y011811
Y0141732
X0291339Y0141732
Y0149606
X0283465Y0153543
X0271654
X025748Y0148031
X0253937Y0141732
X0242126
X0230315
X0218504
X0206693
X0194882
X0183071
X0180709Y014685
X0177165Y0153543
X0188976
X0200787
X0212598
X0224409
X023622
X0248031
X0253937Y011811
X0230315
X0218504
X0200787Y0106299
X0188976
X0186614Y0109843
X0174803Y0112992
X0165354Y0106299
X017126Y0094488
X0183071
X0188976Y0082677
X0200787
X0212598
X0194882Y0070866
X0183071
X017126
X0159449
X0165354Y0082677
X0177165
X0159449Y0094488
X0170079Y0124803
X0167323Y0131496
X0162205Y0137008
X0158268
X0165354Y0153543
X0177165Y0129921
X0188976
X0224409Y0059055
X0248031
X0259842
X0271654
X0283465
X0277559Y0070866
X0265748
X0242126
X0291339Y0133858
Y015748
Y0165354
X0283464
X027559
X0267716
X0259842
X0251968
X0244094
X023622
X0228346
X0220472
X0212598
X0204724
X019685
X0188976
X0181102
X0173228
X0165354
X015748
X0149606
X0141732
X0125984
X011811
X0118898Y016063
X0111417
X0110236Y0165354
X0102362
X0105512Y0160236
X0070866Y0165354
X0062992
Y015748
T02
X0100236Y005937
X0108236
X0116236
X0124236
X0120236Y006637
X0112236
X0104236
X0096236
X0100236Y0142291
X0108236
X0116236
X0124236
X0120236Y0149291
X0112236
X0104236
X0096236
T04
X0215158Y006197
X0240158
X0265158Y011227
T05
X0078236Y006287
X0142236
Y0145791
X0078236
T06
X0225157Y007227
X0255157
X0240158Y012227
T07
X0085236Y004937
X0135236
Y0159291
X0085236
M30
